<?xml version="1.0" encoding="utf-8"?>
<!-- Svg Vector Icons : http://www.onlinewebfonts.com/icon -->
<!DOCTYPE svg PUBLIC "-//W3C//DTD SVG 1.1//EN" "http://www.w3.org/Graphics/SVG/1.1/DTD/svg11.dtd">
<svg version="1.1" xmlns="http://www.w3.org/2000/svg" xmlns:xlink="http://www.w3.org/1999/xlink" x="0px" y="0px" viewBox="0 0 1000 1000" enable-background="new 0 0 1000 1000" xml:space="preserve">
<metadata> Svg Vector Icons : http://www.onlinewebfonts.com/icon </metadata>
<g><g><g><g><path d="M500,10C229.4,10,10,229.4,10,500c0,270.7,219.4,490,490,490c270.7,0,490-219.3,490-490C990,229.4,770.7,10,500,10z M718,519.6l-253.3,200c-14.2,11.2-37.2,11.2-51.4,0l0.1-0.1c-7-5.1-11.5-12.3-11.5-20.5V299.8c0-8,4.2-15.2,11-20.4l0.3-0.3c14.2-11.1,37.2-11.1,51.4,0l251.9,199.6l1.4,0.7C732.3,490.5,732.3,508.5,718,519.6z"/></g></g></g><g></g><g></g><g></g><g></g><g></g><g></g><g></g><g></g><g></g><g></g><g></g><g></g><g></g><g></g><g></g></g>
</svg>
